<svg width="1920.000000" height="352.000000" viewBox="0 0 1920 352" fill="none" xmlns="http://www.w3.org/2000/svg" xmlns:xlink="http://www.w3.org/1999/xlink">
	<desc>
			Created with Pixso.
	</desc>
	<defs>
		<clipPath id="clip13_139">
			<rect id="pattern" rx="-0.500000" width="1919.000000" height="351.000000" transform="translate(0.500000 0.500000)" fill="white" fill-opacity="0"/>
		</clipPath>
	</defs>
	<g clip-path="url(#clip13_139)">
		<g opacity="0.300000">
			<path id="Vector 4" d="M-4.01 2.49L-4.01 929.81L1916 929.81L1916 318.79C1916 318.79 1351 318.79 956 159.39C561 -6.11e-5 -4.01 2.49 -4.01 2.49Z" fill="#75CAEF" fill-opacity="1.000000" fill-rule="evenodd"/>
		</g>
		<path id="Vector 4" d="M1916 457.1L1916 36.36C1529 9.5 1339.5 90 1023.5 191.58C586.31 332.13 -4 348.5 -4 348.5L-4 457.1L1916 457.1Z" fill="#FFFFFF" fill-opacity="1.000000" fill-rule="nonzero"/>
		<path id="Vector 4" d="M1916 457.1L-4 457.1L-4 348.5C-4 348.5 586.31 332.13 1023.5 191.58C1339.5 90 1529 9.5 1916 36.36L1916 457.1Z" stroke="#FFFFFF" stroke-opacity="1.000000" stroke-width="1.000000"/>
	</g>
</svg>
