<svg width="7.000000" height="11.000000" viewBox="0 0 7 11" fill="none" xmlns="http://www.w3.org/2000/svg" xmlns:xlink="http://www.w3.org/1999/xlink">
	<desc>
			Created with Pixso.
	</desc>
	<defs/>
	<path id="Vector" d="M5.84 -0.69L4.36 -0.69C2.71 -0.69 1.64 0.41 1.64 2.11L1.64 3.4L0.15 3.4C0.03 3.4 -0.08 3.5 -0.08 3.63L-0.08 5.5C-0.08 5.63 0.03 5.73 0.15 5.73L1.64 5.73L1.64 10.45C1.64 10.57 1.74 10.68 1.87 10.68L3.8 10.68C3.93 10.68 4.03 10.57 4.03 10.45L4.03 5.73L5.77 5.73C5.89 5.73 6 5.63 6 5.5L6 3.63C6 3.57 5.97 3.51 5.93 3.47C5.89 3.42 5.83 3.4 5.77 3.4L4.03 3.4L4.03 2.31C4.03 1.78 4.16 1.51 4.84 1.51L5.84 1.51C5.96 1.51 6.07 1.41 6.07 1.28L6.07 -0.45C6.07 -0.58 5.96 -0.69 5.84 -0.69Z" fill="#1144C9" fill-opacity="1.000000" fill-rule="nonzero"/>
</svg>
