<svg width="37" height="37" viewBox="0 0 37 37" fill="none" xmlns="http://www.w3.org/2000/svg">
<circle cx="18.5" cy="18.5" r="17.7128" stroke="#1144C9" stroke-width="1.57447"/>
<path fill-rule="evenodd" clip-rule="evenodd" d="M19 9C17.8482 9 16.7436 9.44225 15.9292 10.2295C15.1147 11.0167 14.6572 12.0844 14.6572 13.1977C14.6572 14.311 15.1147 15.3787 15.9292 16.1659C16.7436 16.9531 17.8482 17.3953 19 17.3953C20.1518 17.3953 21.2564 16.9531 22.0708 16.1659C22.8853 15.3787 23.3428 14.311 23.3428 13.1977C23.3428 12.0844 22.8853 11.0167 22.0708 10.2295C21.2564 9.44225 20.1518 9 19 9ZM16.0286 13.1977C16.0286 12.4359 16.3416 11.7054 16.8989 11.1668C17.4561 10.6282 18.2119 10.3256 19 10.3256C19.7881 10.3256 20.5439 10.6282 21.1011 11.1668C21.6583 11.7054 21.9714 12.4359 21.9714 13.1977C21.9714 13.9594 21.6583 14.6899 21.1011 15.2286C20.5439 15.7672 19.7881 16.0698 19 16.0698C18.2119 16.0698 17.4561 15.7672 16.8989 15.2286C16.3416 14.6899 16.0286 13.9594 16.0286 13.1977ZM19 18.7209C16.8853 18.7209 14.936 19.1858 13.4924 19.9705C12.0698 20.7447 11.0001 21.9165 11.0001 23.3605V23.4506C10.9991 24.4775 10.9982 25.766 12.1676 26.6868C12.7427 27.1393 13.5481 27.4618 14.6361 27.6739C15.726 27.8878 17.1477 28 19 28C20.8523 28 22.2731 27.8878 23.3648 27.6739C24.4528 27.4618 25.2573 27.1393 25.8333 26.6868C27.0027 25.766 27.0009 24.4775 26.9999 23.4506V23.3605C26.9999 21.9165 25.9302 20.7447 24.5085 19.9705C23.064 19.1858 21.1156 18.7209 19 18.7209ZM12.3715 23.3605C12.3715 22.6084 12.9402 21.7919 14.1644 21.1264C15.3676 20.4725 17.0754 20.0465 19.0009 20.0465C20.9246 20.0465 22.6324 20.4725 23.8356 21.1264C25.0608 21.7919 25.6285 22.6084 25.6285 23.3605C25.6285 24.5164 25.592 25.1668 24.9666 25.6581C24.6283 25.925 24.0615 26.1857 23.0923 26.3748C22.1259 26.564 20.8048 26.6744 19 26.6744C17.1952 26.6744 15.8732 26.564 14.9077 26.3748C13.9385 26.1857 13.3717 25.925 13.0334 25.659C12.408 25.1668 12.3715 24.5164 12.3715 23.3605Z" fill="#1144C9"/>
</svg>
