<svg width="37" height="37" viewBox="0 0 37 37" fill="none" xmlns="http://www.w3.org/2000/svg">
<circle cx="18.5" cy="18.5" r="17.7128" stroke="#1144C9" stroke-width="1.57447"/>
<path d="M21.9768 20.9326L22.3509 20.5408L21.482 19.6206L21.1096 20.0123L21.9768 20.9326ZM23.6053 20.3765L25.1732 21.2751L25.7598 20.1352L24.1927 19.2374L23.6053 20.3765ZM25.4743 23.0602L24.3093 24.2823L25.1765 25.2017L26.3415 23.9804L25.4743 23.0602ZM23.5988 24.675C22.4091 24.7926 19.3325 24.6879 15.9999 21.1955L15.1319 22.1149C18.768 25.9264 22.2294 26.1133 23.7136 25.9671L23.5988 24.675ZM15.9999 21.1955C12.824 17.8657 12.2973 15.0661 12.2316 13.8509L11.0026 13.9244C11.0846 15.4535 11.7369 18.5567 15.1319 22.1149L15.9999 21.1955ZM17.128 15.8505L17.3634 15.6031L16.4971 14.6838L16.2616 14.9303L17.128 15.8505ZM17.5505 12.4593L16.5168 11.0028L15.5314 11.7812L16.5652 13.2368L17.5505 12.4593ZM13.0373 10.6854L11.7492 12.0346L12.6172 12.9549L13.9045 11.6056L13.0373 10.6854ZM16.6948 15.3904C16.26 14.9303 16.26 14.9303 16.26 14.932H16.2583L16.2559 14.9355C16.2171 14.9771 16.1822 15.0226 16.1517 15.0712C16.1074 15.1404 16.0589 15.2312 16.0179 15.3463C15.918 15.6432 15.8931 15.9624 15.9457 16.2726C16.0557 17.0207 16.5446 18.0093 17.7966 19.3222L18.6647 18.4019C17.4923 17.1738 17.2133 16.4265 17.1616 16.0736C17.137 15.9059 17.1624 15.8228 17.1698 15.8038C17.1739 15.7917 17.1756 15.7908 17.1698 15.7986C17.1626 15.8106 17.1543 15.8219 17.1452 15.8323L17.137 15.841C17.1343 15.8437 17.1316 15.8463 17.1288 15.8488L16.6948 15.3904ZM17.7966 19.3222C19.0494 20.6351 19.9921 21.1471 20.7026 21.2612C21.0661 21.3201 21.359 21.2734 21.5813 21.186C21.7056 21.1375 21.8219 21.0686 21.9259 20.9819C21.94 20.9694 21.9537 20.9565 21.9669 20.943L21.9727 20.9378L21.9751 20.9352L21.9759 20.9334C21.9759 20.9334 21.9768 20.9326 21.5427 20.4725C21.1079 20.0123 21.1104 20.0115 21.1104 20.0115L21.112 20.0098L21.1137 20.008L21.1186 20.0037L21.1268 19.995C21.1366 19.9857 21.1471 19.977 21.158 19.9691C21.1662 19.963 21.1637 19.9656 21.1522 19.9708C21.1317 19.9786 21.0513 20.0054 20.8897 19.9795C20.55 19.9241 19.8362 19.6301 18.6647 18.4019L17.7966 19.3222ZM16.5168 11.0019C15.6799 9.8257 14.0358 9.63888 13.0373 10.6854L13.9045 11.6056C14.341 11.1481 15.1154 11.1957 15.5314 11.7812L16.5168 11.0019ZM12.2324 13.8518C12.216 13.5525 12.3465 13.2394 12.6172 12.9557L11.7484 12.0355C11.3078 12.4973 10.9608 13.1512 11.0026 13.9244L12.2324 13.8518ZM24.3093 24.2823C24.0845 24.5193 23.8416 24.6525 23.5996 24.6758L23.7136 25.9671C24.3166 25.9074 24.8097 25.5874 25.1773 25.2025L24.3093 24.2823ZM17.3634 15.6031C18.1716 14.7564 18.2315 13.4184 17.5513 12.4601L16.566 13.2377C16.8966 13.7039 16.8474 14.3153 16.4962 14.6846L17.3634 15.6031ZM25.174 21.2759C25.8443 21.66 25.9485 22.5646 25.4751 23.0611L26.3431 23.9804C27.4425 22.8276 27.1037 20.9049 25.7606 20.136L25.174 21.2759ZM22.3509 20.5417C22.6659 20.2113 23.1729 20.13 23.6061 20.3773L24.1936 19.2383C23.3042 18.728 22.2016 18.869 21.4829 19.6214L22.3509 20.5417Z" fill="#1144C9"/>
</svg>
