<svg width="11.000000" height="11.000000" viewBox="0 0 11 11" fill="none" xmlns="http://www.w3.org/2000/svg" xmlns:xlink="http://www.w3.org/1999/xlink">
	<desc>
			Created with Pixso.
	</desc>
	<defs/>
	<path id="Vector" d="M2.05 -0.78C0.64 -0.78 -0.5 0.36 -0.5 1.78L-0.5 8.21C-0.5 9.63 0.64 10.77 2.05 10.77L7.94 10.77C9.35 10.77 10.5 9.63 10.5 8.21L10.5 1.78C10.5 0.36 9.35 -0.78 7.94 -0.78L2.05 -0.78ZM7.39 1.61C7.39 1.21 7.72 0.88 8.12 0.88C8.52 0.88 8.84 1.21 8.84 1.61C8.84 2.01 8.52 2.33 8.12 2.33C7.72 2.33 7.39 2.01 7.39 1.61ZM5.02 2.33C3.54 2.33 2.35 3.52 2.35 4.99L2.35 5.15C2.35 6.62 3.54 7.82 5.02 7.82C6.49 7.82 7.68 6.62 7.68 5.15L7.68 4.99C7.68 3.52 6.49 2.33 5.02 2.33ZM5 3.36C4.09 3.36 3.36 4.09 3.36 5C3.36 5.9 4.09 6.63 5 6.63C5.9 6.63 6.63 5.9 6.63 5C6.63 4.09 5.9 3.36 5 3.36Z" fill="#1144C9" fill-opacity="1.000000" fill-rule="evenodd"/>
</svg>
