<svg width="24.000000" height="24.000000" viewBox="0 0 24 24" fill="none" xmlns="http://www.w3.org/2000/svg" xmlns:xlink="http://www.w3.org/1999/xlink">
	<desc>
			Created with Pixso.
	</desc>
	<defs/>
	<rect id="24 / maps / pin" width="24.000000" height="24.000000" transform="translate(-0.206055 -0.772949)" fill="#FFFFFF" fill-opacity="0"/>
	<path id="icon" d="M12.4517 21.9805L11.7939 22.5547L11.1362 21.9805C5.60522 17.1509 2.79395 12.9336 2.79395 9.22705C2.79395 3.97754 6.89099 0.227051 11.7939 0.227051C16.6969 0.227051 20.7939 3.97754 20.7939 9.22705C20.7939 12.9336 17.9827 17.1509 12.4517 21.9805ZM11.7939 19.8906C7.10059 15.6606 4.79395 12.0762 4.79395 9.22705C4.79395 5.12354 7.95801 2.22705 11.7939 2.22705C15.6299 2.22705 18.7939 5.12354 18.7939 9.22705C18.7939 12.0762 16.4873 15.6606 11.7939 19.8906ZM16.7939 9.22705C16.7939 6.46582 14.5554 4.22705 11.7939 4.22705C9.03247 4.22705 6.79395 6.46582 6.79395 9.22705C6.79395 11.9883 9.03247 14.2271 11.7939 14.2271C14.5554 14.2271 16.7939 11.9883 16.7939 9.22705ZM8.79395 9.22705C8.79395 7.57031 10.1371 6.22705 11.7939 6.22705C13.4508 6.22705 14.7939 7.57031 14.7939 9.22705C14.7939 10.8838 13.4508 12.2271 11.7939 12.2271C10.1371 12.2271 8.79395 10.8838 8.79395 9.22705Z" clip-rule="evenodd" fill="#1144C9" fill-opacity="1.000000" fill-rule="evenodd"/>
</svg>
