<svg width="45.000000" height="47.000000" viewBox="0 0 45 47" fill="none" xmlns="http://www.w3.org/2000/svg" xmlns:xlink="http://www.w3.org/1999/xlink">
	<desc>
			Created with Pixso.
	</desc>
	<defs/>
	<rect id="44. Лого" width="45.000000" height="45.000000" transform="translate(0.000000 1.000000) rotate(-0.000000)" fill="#FFFFFF" fill-opacity="0"/>
	<path id="Rectangle 6.5" d="M27.18 20.04C31.64 30.15 27.06 41.95 16.96 46.42L8.07 26.29C3.61 16.19 8.19 4.38 18.29 -0.08L27.18 20.04ZM26.16 22.68C29.72 30.76 26.07 40.21 17.98 43.78L9.1 23.65C5.53 15.57 9.19 6.12 17.27 2.55L26.16 22.68Z" fill="#FFFFFF" fill-opacity="1.000000" fill-rule="evenodd"/>
	<path id="Rectangle 6.6" d="M33.13 23.67C34.83 34.58 27.35 44.8 16.44 46.5L13.06 24.76C11.37 13.84 18.84 3.62 29.76 1.93L33.13 23.67ZM31.46 25.95C32.82 34.68 26.84 42.86 18.11 44.21L14.73 22.48C13.38 13.74 19.36 5.57 28.09 4.21L31.46 25.95Z" fill="#FFFFFF" fill-opacity="1.000000" fill-rule="evenodd"/>
	<path id="Rectangle 6.7" d="M38.51 28.02C37.32 39 27.46 46.94 16.48 45.75L18.84 23.88C20.03 12.9 29.9 4.96 40.88 6.15L38.51 28.02ZM36.31 29.79C35.36 38.58 27.47 44.93 18.68 43.98L21.05 22.11C22 13.32 29.89 6.97 38.68 7.92L36.31 29.79Z" fill="#FFFFFF" fill-opacity="1.000000" fill-rule="evenodd"/>
</svg>
