<svg width="22.000000" height="18.000000" viewBox="0 0 22 18" fill="none" xmlns="http://www.w3.org/2000/svg" xmlns:xlink="http://www.w3.org/1999/xlink">
	<desc>
			Created with Pixso.
	</desc>
	<defs/>
	<path id="icon" d="M19.7939 -0.772949L1.79395 -0.772949C0.689453 -0.772949 -0.206055 0.122559 -0.206055 1.22705L-0.206055 15.2271C-0.206055 16.3315 0.689453 17.2271 1.79395 17.2271L19.7939 17.2271C20.8984 17.2271 21.7939 16.3315 21.7939 15.2271L21.7939 1.22705C21.7939 0.122559 20.8984 -0.772949 19.7939 -0.772949ZM1.79395 3.60889L1.79395 1.22705L19.7939 1.22705L19.7939 3.60938L10.7939 8.10938L1.79395 3.60889ZM1.79395 5.84521L1.79395 15.2271L19.7939 15.2271L19.7939 5.8457L10.7939 10.3457L1.79395 5.84521Z" clip-rule="evenodd" fill="#1144C9" fill-opacity="1.000000" fill-rule="evenodd"/>
</svg>
