<svg width="13.000000" height="13.000000" viewBox="0 0 13 13" fill="none" xmlns="http://www.w3.org/2000/svg" xmlns:xlink="http://www.w3.org/1999/xlink">
	<desc>
			Created with Pixso.
	</desc>
	<defs/>
	<path id="Vector" d="M6.7 0C8.31 0.22 9.77 0.95 10.92 2.1C12.02 3.2 12.73 4.58 13 6.1L12 6.27C11.77 4.95 11.15 3.76 10.21 2.82C9.21 1.82 7.95 1.19 6.56 1L6.7 0ZM9.88 8.59C9.45 8.18 8.92 8.18 8.5 8.59C8.18 8.91 7.86 9.23 7.54 9.56C7.45 9.65 7.38 9.67 7.28 9.61C7.07 9.49 6.85 9.4 6.65 9.28C5.71 8.69 4.93 7.93 4.24 7.08C3.89 6.66 3.59 6.21 3.38 5.7C3.33 5.6 3.34 5.53 3.42 5.45C3.75 5.14 4.06 4.82 4.38 4.5C4.82 4.06 4.82 3.54 4.37 3.09C4.12 2.83 3.87 2.59 3.62 2.33C3.36 2.07 3.1 1.81 2.84 1.55C2.41 1.14 1.88 1.14 1.46 1.56C1.14 1.87 0.83 2.2 0.5 2.52C0.19 2.81 0.04 3.16 0 3.57C-0.05 4.25 0.12 4.88 0.35 5.5C0.83 6.78 1.55 7.92 2.43 8.97C3.62 10.38 5.04 11.5 6.69 12.3C7.44 12.67 8.21 12.94 9.06 12.99C9.64 13.02 10.14 12.88 10.54 12.43C10.82 12.12 11.13 11.84 11.42 11.54C11.85 11.1 11.86 10.57 11.43 10.14C10.91 9.62 10.4 9.11 9.88 8.59ZM9.36 6.44L10.36 6.27C10.2 5.35 9.77 4.52 9.11 3.86C8.42 3.17 7.54 2.73 6.57 2.59L6.43 3.6C7.18 3.7 7.86 4.04 8.4 4.58C8.91 5.09 9.24 5.73 9.36 6.44Z" fill="#FFFFFF" fill-opacity="1.000000" fill-rule="evenodd"/>
</svg>
