<svg width="20.000000" height="20.000000" viewBox="0 0 20 20" fill="none" xmlns="http://www.w3.org/2000/svg" xmlns:xlink="http://www.w3.org/1999/xlink">
	<desc>
			Created with Pixso.
	</desc>
	<defs/>
	<path id="icon" d="M8.76843 3.48193C9.35437 4.13135 9.16858 4.86719 8.65051 5.56543C8.52759 5.73096 8.38599 5.89404 8.21497 6.07373C8.13293 6.16016 8.06897 6.2251 7.93506 6.35889C7.63098 6.66309 7.37549 6.91895 7.16833 7.12598C7.06787 7.22656 7.75366 8.59717 9.08472 9.9292C10.4149 11.2607 11.7853 11.9473 11.8862 11.8462L12.6525 11.0796C13.0745 10.6572 13.298 10.4536 13.605 10.252C14.2433 9.83301 14.9396 9.71924 15.5269 10.2446C17.4442 11.6162 18.5293 12.4575 19.0609 13.0098C20.0977 14.0874 19.9618 15.7456 19.0668 16.6914C18.7563 17.0195 18.3628 17.4131 17.8981 17.8613C15.0865 20.6743 9.15283 18.9624 4.60535 14.4106C0.0567627 9.85742 -1.6543 3.92334 1.15137 1.11621C1.65515 0.604492 1.82117 0.438477 2.31177 -0.0449219C3.2251 -0.944824 4.95984 -1.08545 6.0144 -0.0439453C6.56909 0.503906 7.45349 1.64209 8.76843 3.48193ZM13.2997 13.2603L14.066 12.4937C14.2983 12.2612 14.4489 12.1182 14.5713 12.0195C16.2509 13.2261 17.2236 13.9844 17.621 14.3975C17.8596 14.645 17.8225 15.0972 17.6151 15.3164C17.3281 15.6201 16.9552 15.9932 16.4977 16.4346C14.6797 18.2529 9.88989 16.8711 6.01904 12.9966C2.14709 9.12109 0.765869 4.33057 2.57019 2.5249C3.07178 2.01562 3.23071 1.85645 3.71436 1.38037C3.89563 1.20166 4.38953 1.16162 4.60999 1.37939C5.03711 1.80127 5.82935 2.81543 6.99463 4.43896C6.93433 4.51367 6.85901 4.59863 6.76733 4.69482C6.69995 4.76562 6.64392 4.82227 6.52136 4.94482C6.21753 5.24902 5.96216 5.50488 5.75525 5.71143C4.45215 7.01465 5.56201 9.23242 7.6709 11.3433C9.77844 13.4526 11.9969 14.564 13.2997 13.2603Z" clip-rule="evenodd" fill="#1144C9" fill-opacity="1.000000" fill-rule="evenodd"/>
</svg>
