<svg width="28.000000" height="20.000000" viewBox="0 0 28 20" fill="none" xmlns="http://www.w3.org/2000/svg" xmlns:xlink="http://www.w3.org/1999/xlink">
	<desc>
			Created with Pixso.
	</desc>
	<defs>
		<clipPath id="clip3_832">
			<rect id="Icons/Flags" rx="4.000000" width="28.000000" height="20.000000" fill="white" fill-opacity="0"/>
		</clipPath>
	</defs>
	<rect id="Icons/Flags" rx="4.000000" width="28.000000" height="20.000000" fill="#FFFFFF" fill-opacity="0"/>
	<g clip-path="url(#clip3_832)">
		<path id="Vector" d="M4 0L24 0C26.2 0 28 1.79 28 4L28 16C28 18.2 26.2 20 24 20L4 20C1.79 20 0 18.2 0 16L0 4C0 1.79 1.79 0 4 0Z" fill="#FFFFFF" fill-opacity="1.000000" fill-rule="evenodd"/>
		<path id="Vector" d="M24 0C26.2 0 28 1.79 28 4L28 16C28 18.2 26.2 20 24 20L4 20C1.79 20 0 18.2 0 16L0 4C0 1.79 1.79 0 4 0L24 0Z" stroke="#C4C4C4" stroke-opacity="1.000000" stroke-width="0.500000"/>
		<path id="Vector" d="M0 6.66L28 6.66L28 19.99L0 19.99L0 6.66Z" fill="#0039A6" fill-opacity="1.000000" fill-rule="evenodd"/>
		<path id="Vector" d="M0 13.33L28 13.33L28 20L0 20L0 13.33Z" fill="#D52B1E" fill-opacity="1.000000" fill-rule="evenodd"/>
	</g>
</svg>
