<svg width="22.000000" height="22.000000" viewBox="0 0 22 22" fill="none" xmlns="http://www.w3.org/2000/svg" xmlns:xlink="http://www.w3.org/1999/xlink">
	<desc>
			Created with Pixso.
	</desc>
	<defs/>
	<path id="icon" d="M-0.206055 10.2271C-0.206055 16.3022 4.71875 21.2271 10.7939 21.2271C16.8691 21.2271 21.7939 16.3022 21.7939 10.2271C21.7939 4.15186 16.8691 -0.772949 10.7939 -0.772949C4.71875 -0.772949 -0.206055 4.15186 -0.206055 10.2271ZM19.7939 10.2271C19.7939 15.1978 15.7644 19.2271 10.7939 19.2271C5.82349 19.2271 1.79395 15.1978 1.79395 10.2271C1.79395 5.25635 5.82349 1.22705 10.7939 1.22705C15.7644 1.22705 19.7939 5.25635 19.7939 10.2271ZM15.7939 9.22705L11.7939 9.22705L11.7939 4.22705L9.79395 4.22705L9.79395 11.2271L15.7939 11.2271L15.7939 9.22705Z" clip-rule="evenodd" fill="#1144C9" fill-opacity="1.000000" fill-rule="evenodd"/>
</svg>
