<svg width="12.000000" height="9.000000" viewBox="0 0 12 9" fill="none" xmlns="http://www.w3.org/2000/svg" xmlns:xlink="http://www.w3.org/1999/xlink">
	<desc>
			Created with Pixso.
	</desc>
	<defs/>
	<path id="Vector" d="M12 0.27C11.55 0.47 11.07 0.6 10.58 0.66C11.09 0.36 11.48 -0.12 11.66 -0.7C11.18 -0.41 10.66 -0.21 10.1 -0.1C9.65 -0.58 9 -0.88 8.3 -0.88C6.94 -0.88 5.84 0.23 5.84 1.58C5.84 1.78 5.86 1.96 5.9 2.14C3.86 2.04 2.05 1.06 0.83 -0.43C0.62 -0.06 0.49 0.36 0.49 0.81C0.49 1.66 0.93 2.42 1.59 2.86C1.19 2.85 0.8 2.73 0.47 2.55C0.47 2.56 0.47 2.57 0.47 2.58C0.47 3.78 1.33 4.77 2.45 5C2.25 5.05 2.03 5.08 1.8 5.08C1.64 5.08 1.48 5.07 1.34 5.04C1.65 6.01 2.56 6.73 3.63 6.75C2.8 7.41 1.73 7.8 0.58 7.8C0.38 7.8 0.19 7.79 0 7.77C1.08 8.47 2.38 8.87 3.77 8.87C8.3 8.87 10.77 5.12 10.77 1.87C10.77 1.76 10.77 1.66 10.76 1.55C11.25 1.2 11.66 0.77 12 0.27Z" fill="#1144C9" fill-opacity="1.000000" fill-rule="nonzero"/>
</svg>
