<svg width="14.000000" height="7.000000" viewBox="0 0 14 7" fill="none" xmlns="http://www.w3.org/2000/svg" xmlns:xlink="http://www.w3.org/1999/xlink">
	<desc>
			Created with Pixso.
	</desc>
	<defs/>
	<path id="icon" d="M12.04 4.07C12.51 4.52 13 4.95 13.41 5.45C13.6 5.67 13.77 5.9 13.91 6.16C14.1 6.52 13.92 6.93 13.6 6.95L11.56 6.95C11.03 6.99 10.61 6.78 10.26 6.42C9.98 6.13 9.71 5.83 9.44 5.53C9.33 5.41 9.21 5.29 9.08 5.2C8.8 5.02 8.56 5.08 8.4 5.37C8.23 5.66 8.2 5.99 8.18 6.32C8.16 6.8 8.01 6.93 7.53 6.95C6.5 7 5.52 6.84 4.61 6.32C3.81 5.86 3.19 5.21 2.65 4.48C1.6 3.06 0.79 1.49 0.07 -0.13C-0.1 -0.49 0.02 -0.68 0.42 -0.69C1.09 -0.7 1.75 -0.7 2.42 -0.69C2.69 -0.69 2.87 -0.53 2.97 -0.28C3.33 0.61 3.77 1.45 4.33 2.23C4.47 2.44 4.62 2.65 4.84 2.79C5.07 2.96 5.25 2.9 5.37 2.64C5.44 2.47 5.47 2.29 5.48 2.11C5.54 1.5 5.54 0.88 5.45 0.27C5.39 -0.11 5.18 -0.36 4.8 -0.43C4.6 -0.47 4.63 -0.54 4.72 -0.65C4.89 -0.85 5.04 -0.97 5.35 -0.97L7.65 -0.97C8.02 -0.89 8.1 -0.73 8.15 -0.37L8.15 2.19C8.15 2.33 8.22 2.75 8.47 2.85C8.68 2.91 8.81 2.75 8.94 2.62C9.49 2.04 9.88 1.34 10.23 0.63C10.39 0.31 10.52 -0.01 10.65 -0.34C10.75 -0.58 10.9 -0.7 11.17 -0.7L13.39 -0.7C13.46 -0.7 13.53 -0.7 13.59 -0.68C13.96 -0.62 14.07 -0.46 13.95 -0.1C13.77 0.48 13.41 0.95 13.07 1.43C12.7 1.95 12.3 2.44 11.94 2.96C11.6 3.43 11.62 3.66 12.04 4.07Z" fill="#1144C9" fill-opacity="1.000000" fill-rule="evenodd"/>
</svg>
