<svg width="13.000000" height="15.000000" viewBox="0 0 13 15" fill="none" xmlns="http://www.w3.org/2000/svg" xmlns:xlink="http://www.w3.org/1999/xlink">
	<desc>
			Created with Pixso.
	</desc>
	<defs/>
	<path id="youtube" d="M2.82 5.09L2.82 2.8C2.75 2.39 2.57 1.79 2.31 1.02C2.1 0.44 1.92 -0.09 1.76 -0.56L2.66 -0.56L3.25 1.66L3.83 -0.56L4.69 -0.56L3.67 2.8L3.67 5.09L2.82 5.09ZM5.82 5.15C6.21 5.15 6.5 5.01 6.71 4.72C6.87 4.51 6.95 4.18 6.95 3.72L6.95 2.25C6.95 1.8 6.87 1.47 6.71 1.26C6.5 0.97 6.21 0.83 5.82 0.83C5.44 0.83 5.15 0.97 4.93 1.26C4.77 1.47 4.7 1.8 4.7 2.25L4.7 3.72C4.7 4.17 4.77 4.51 4.93 4.72C5.15 5.01 5.44 5.15 5.82 5.15ZM9.01 4.63C8.71 4.97 8.42 5.15 8.14 5.15C7.88 5.15 7.71 5.05 7.64 4.84C7.59 4.7 7.57 4.49 7.57 4.2L7.57 0.88L8.34 0.88L8.34 3.98C8.34 4.16 8.34 4.26 8.35 4.27C8.36 4.4 8.42 4.46 8.53 4.46C8.68 4.46 8.84 4.34 9.01 4.1L9.01 0.88L9.77 0.88L9.77 5.09L9.01 5.09L9.01 4.63ZM5.45 2.1Q5.45 1.68 5.64 1.56Q5.72 1.51 5.82 1.51C6.06 1.51 6.18 1.71 6.18 2.1L6.18 3.87C6.18 4.26 6.06 4.46 5.82 4.46C5.58 4.46 5.45 4.26 5.45 3.87L5.45 2.1ZM12.03 7.25C11.95 6.92 11.79 6.64 11.54 6.41C11.29 6.19 11 6.06 10.68 6.02C9.64 5.91 8.08 5.85 6 5.85C3.91 5.85 2.35 5.91 1.32 6.02C0.99 6.06 0.7 6.19 0.45 6.41C0.21 6.64 0.04 6.92 -0.04 7.25C-0.18 7.9 -0.25 8.89 -0.25 10.2C-0.25 11.54 -0.18 12.52 -0.04 13.15C0.04 13.49 0.2 13.76 0.45 13.99C0.7 14.21 0.99 14.34 1.31 14.38C2.35 14.49 3.91 14.55 6 14.55C8.08 14.55 9.64 14.49 10.68 14.38C11 14.34 11.29 14.21 11.54 13.99C11.78 13.76 11.95 13.49 12.03 13.15C12.17 12.5 12.25 11.52 12.25 10.2C12.25 8.86 12.17 7.88 12.03 7.25ZM3.31 8.1L2.41 8.1L2.41 12.9L1.57 12.9L1.57 8.1L0.68 8.1L0.68 7.31L3.31 7.31L3.31 8.1ZM8.46 11.65C8.46 12.06 8.43 12.34 8.38 12.5C8.29 12.81 8.09 12.96 7.78 12.96C7.51 12.96 7.25 12.81 7 12.5L7 12.9L6.25 12.9L6.25 7.31L7 7.31L7 9.14C7.24 8.84 7.5 8.68 7.78 8.68C8.09 8.68 8.29 8.84 8.38 9.16C8.43 9.3 8.46 9.58 8.46 9.99L8.46 11.65ZM11.31 10.96L9.8 10.96L9.8 11.69C9.8 12.08 9.93 12.28 10.19 12.28C10.37 12.28 10.49 12.18 10.52 11.97C10.54 11.92 10.54 11.75 10.54 11.46L11.31 11.46L11.31 11.57C11.31 11.84 11.3 12.01 11.29 12.06C11.28 12.21 11.22 12.36 11.11 12.51C10.91 12.81 10.61 12.96 10.2 12.96C9.82 12.96 9.51 12.82 9.29 12.53C9.13 12.32 9.05 12 9.05 11.55L9.05 10.09C9.05 9.65 9.13 9.32 9.28 9.11C9.5 8.83 9.8 8.68 10.19 8.68C10.56 8.68 10.86 8.83 11.08 9.11C11.23 9.32 11.31 9.65 11.31 10.09L11.31 10.96ZM5.59 12.9L4.84 12.9L4.84 12.44C4.54 12.79 4.25 12.96 3.98 12.96C3.72 12.96 3.56 12.86 3.49 12.65C3.45 12.51 3.42 12.31 3.42 12.03L3.42 8.73L4.17 8.73L4.17 11.8C4.17 11.98 4.18 12.08 4.18 12.1C4.2 12.22 4.26 12.28 4.36 12.28C4.51 12.28 4.67 12.16 4.84 11.92L4.84 8.73L5.59 8.73L5.59 12.9ZM7 9.55C7.12 9.43 7.25 9.37 7.38 9.37C7.6 9.37 7.71 9.55 7.71 9.93L7.71 11.71C7.71 12.09 7.6 12.28 7.38 12.28C7.25 12.28 7.12 12.21 7 12.09L7 9.55ZM10.18 9.37C9.93 9.37 9.8 9.56 9.8 9.94L9.8 10.33L10.56 10.33L10.56 9.94C10.56 9.56 10.43 9.37 10.18 9.37Z" fill="#1144C9" fill-opacity="1.000000" fill-rule="evenodd"/>
</svg>
